<?xml version="1.0" standalone="no"?>
<!DOCTYPE svg PUBLIC "-//W3C//DTD SVG 20010904//EN"
 "http://www.w3.org/TR/2001/REC-SVG-20010904/DTD/svg10.dtd">
<svg version="1.0" xmlns="http://www.w3.org/2000/svg"
 width="700.000000pt" height="700.000000pt" viewBox="0 0 700.000000 700.000000"
 preserveAspectRatio="xMidYMid meet">
<metadata>
Created by potrace 1.11, written by Peter Selinger 2001-2013
</metadata>
<g transform="translate(0.000000,700.000000) scale(0.100000,-0.100000)"
fill="#000000" stroke="none">
<path d="M2908 6645 c-177 -38 -304 -168 -405 -415 -17 -41 -64 -182 -103
-314 -97 -323 -135 -423 -246 -652 -35 -72 -64 -136 -64 -141 0 -6 57 -13 138
-17 390 -20 793 81 1102 274 222 139 437 351 559 553 35 57 20 54 -25 -5 -65
-87 -233 -256 -335 -338 -257 -206 -528 -327 -869 -386 -86 -15 -440 -32 -440
-21 0 3 16 41 36 84 20 43 57 132 84 198 43 109 73 198 216 654 88 277 163
383 321 449 176 74 437 35 832 -124 82 -33 126 -43 106 -26 -16 14 -343 149
-439 182 -172 58 -338 74 -468 45z"/>
<path d="M4610 6305 c-186 -53 -283 -182 -411 -545 -24 -69 -65 -167 -91 -218
-26 -52 -41 -89 -33 -82 28 23 97 151 141 261 165 412 273 527 503 530 49 1
86 -4 99 -12 26 -16 45 -59 40 -90 -2 -20 -11 -25 -53 -31 -167 -26 -227 -62
-294 -176 -53 -92 -161 -290 -161 -297 0 -23 27 14 90 126 41 73 94 153 118
180 57 63 142 106 230 114 101 9 108 12 122 45 26 63 -8 153 -72 186 -44 23
-162 27 -228 9z"/>
<path d="M4090 6249 c-435 -22 -715 -72 -965 -171 -247 -98 -421 -223 -548
-393 -62 -84 -153 -253 -141 -264 3 -3 11 3 18 13 175 294 361 453 678 582
238 96 551 161 978 204 145 14 180 20 180 31 0 5 -10 8 -22 8 -13 -1 -93 -6
-178 -10z"/>
<path d="M3617 5466 c-56 -20 -112 -62 -177 -133 -67 -73 -129 -190 -310 -579
-205 -442 -246 -504 -531 -799 -432 -448 -490 -515 -594 -690 -205 -347 -306
-697 -322 -1110 -19 -527 131 -956 447 -1274 149 -150 327 -254 525 -307 83
-22 128 -27 265 -31 185 -6 294 8 415 52 76 28 69 28 -94 0 -339 -58 -633 1
-889 177 -98 68 -243 212 -309 308 -229 335 -324 814 -257 1285 62 428 217
796 465 1101 32 39 143 160 246 270 446 470 457 485 602 846 177 441 233 559
323 680 89 121 169 179 282 203 l61 13 -55 1 c-30 0 -72 -6 -93 -13z"/>
<path d="M4470 5403 c-58 -6 -126 -32 -306 -114 -187 -86 -259 -109 -344 -110
-47 0 -52 -2 -30 -11 53 -21 158 -2 383 71 119 39 252 77 295 85 160 30 248
-15 325 -169 98 -196 110 -355 66 -830 -16 -170 -16 -404 0 -510 20 -141 55
-269 151 -562 164 -496 205 -716 205 -1098 0 -298 -23 -456 -100 -690 -117
-357 -354 -671 -665 -882 -269 -182 -587 -223 -837 -108 -66 30 -61 17 10 -24
124 -70 285 -100 439 -81 354 43 759 330 988 700 260 421 355 992 259 1560
-32 191 -72 340 -169 630 -178 532 -176 525 -171 885 10 649 8 752 -17 845
-74 281 -256 436 -482 413z"/>
</g>
</svg>
