<?xml version="1.0" standalone="no"?>
<!DOCTYPE svg PUBLIC "-//W3C//DTD SVG 20010904//EN"
 "http://www.w3.org/TR/2001/REC-SVG-20010904/DTD/svg10.dtd">
<svg version="1.0" xmlns="http://www.w3.org/2000/svg"
 width="1080.000000pt" height="1080.000000pt" viewBox="0 0 1080.000000 1080.000000"
 preserveAspectRatio="xMidYMid meet">
<metadata>
Created by potrace 1.11, written by Peter Selinger 2001-2013
</metadata>
<g transform="translate(0.000000,1080.000000) scale(0.100000,-0.100000)"
fill="#000000" stroke="none">
<path d="M4417 10780 c-71 -12 -184 -48 -242 -77 -291 -146 -468 -444 -655
-1098 -146 -514 -268 -842 -446 -1199 -63 -125 -114 -234 -114 -241 0 -17 64
-23 320 -31 780 -25 1520 216 2105 683 127 101 365 335 447 439 101 127 244
341 235 350 -2 2 -26 -24 -53 -58 -83 -107 -247 -289 -340 -378 -547 -524
-1145 -807 -1904 -900 -104 -13 -600 -26 -600 -16 0 4 29 69 64 145 145 310
270 656 440 1222 140 466 187 591 271 720 119 184 278 296 490 345 105 25 348
25 485 0 214 -38 480 -122 828 -259 89 -36 164 -61 167 -57 6 10 -4 15 -345
160 -472 201 -697 261 -966 259 -77 -1 -161 -5 -187 -9z"/>
<path d="M7385 10200 c-199 -23 -375 -129 -508 -305 -102 -136 -158 -258 -294
-640 -41 -115 -107 -276 -146 -357 -40 -80 -69 -144 -65 -142 15 10 98 144
138 224 23 46 82 181 130 300 152 375 224 504 349 628 120 119 242 175 426
194 115 12 196 1 241 -34 51 -40 84 -159 51 -186 -6 -6 -50 -16 -97 -22 -187
-25 -303 -67 -381 -137 -22 -20 -64 -75 -93 -122 -81 -131 -299 -541 -292
-548 10 -11 19 3 147 227 139 245 188 312 273 377 111 84 208 117 377 128 122
9 141 20 159 97 29 117 -24 229 -132 284 -40 20 -190 50 -218 43 -3 -1 -32 -5
-65 -9z"/>
<path d="M6560 10093 c-30 -1 -154 -7 -275 -13 -800 -39 -1323 -155 -1809
-402 -417 -213 -692 -491 -881 -892 -59 -126 -59 -167 1 -59 234 425 596 739
1090 946 452 190 915 288 1764 377 259 26 280 30 280 41 0 8 -41 9 -170 2z"/>
<path d="M5587 8746 c-37 -12 -98 -44 -136 -70 -86 -58 -217 -194 -275 -283
-63 -98 -231 -437 -443 -897 -369 -802 -370 -802 -1141 -1595 -487 -501 -601
-637 -773 -923 -307 -509 -485 -1059 -545 -1678 -22 -237 -15 -648 15 -868 76
-544 259 -977 580 -1369 297 -362 653 -599 1058 -702 162 -42 256 -54 470 -58
223 -5 353 4 503 37 100 22 277 77 284 89 3 5 -38 -2 -92 -14 -306 -72 -660
-87 -932 -40 -679 118 -1266 622 -1543 1325 -103 263 -172 544 -209 855 -19
163 -16 576 6 755 88 733 328 1363 717 1883 133 178 190 242 641 718 472 497
537 572 656 765 79 127 133 242 222 474 96 250 228 569 328 792 125 279 230
445 381 602 136 140 242 197 385 204 106 5 96 22 -14 22 -52 0 -96 -8 -143
-24z"/>
<path d="M7000 8629 c-94 -16 -177 -48 -420 -161 -378 -177 -498 -217 -644
-219 -67 0 -77 -2 -56 -11 14 -6 66 -11 115 -11 108 0 169 15 460 113 392 132
614 190 724 190 57 0 147 -23 203 -51 23 -12 67 -47 98 -78 101 -102 215 -362
256 -586 29 -155 25 -508 -10 -885 -33 -355 -44 -747 -26 -913 32 -297 82
-495 265 -1047 168 -505 213 -662 260 -895 74 -368 107 -687 107 -1025 1 -844
-232 -1550 -697 -2115 -98 -119 -316 -333 -435 -429 -266 -212 -553 -356 -816
-411 -294 -60 -591 -27 -827 92 -60 30 -71 25 -19 -10 307 -202 759 -234 1172
-80 447 166 926 543 1225 963 392 553 605 1284 605 2080 0 582 -94 1064 -357
1835 -153 448 -201 598 -231 725 -81 334 -96 552 -67 977 29 441 39 814 26
957 -48 522 -253 859 -590 973 -86 29 -228 39 -321 22z"/>
</g>
</svg>
